<svg preserveAspectRatio="none" width="100%" height="100%" overflow="visible" style="display: block;" viewBox="0 0 16.9087 20.6023" fill="none" xmlns="http://www.w3.org/2000/svg">
<path id="Vector" d="M3.35339e-06 1.66667V18.9333C3.35339e-06 20.25 1.45 21.05 2.56667 20.3333L16.1333 11.7C16.3709 11.5497 16.5665 11.3417 16.7021 11.0955C16.8376 10.8493 16.9087 10.5728 16.9087 10.2917C16.9087 10.0106 16.8376 9.73407 16.7021 9.48783C16.5665 9.2416 16.3709 9.03365 16.1333 8.88334L2.56667 0.266673C2.31528 0.104081 2.02467 0.0123513 1.7255 0.00116229C1.42632 -0.0100267 1.12967 0.0597392 0.866843 0.2031C0.604014 0.346462 0.38475 0.558103 0.232183 0.815697C0.0796163 1.07329 -0.000597723 1.36729 3.35339e-06 1.66667Z" fill="var(--fill-0, #603F96)"/>
</svg>
