<svg preserveAspectRatio="none" width="100%" height="100%" overflow="visible" style="display: block;" viewBox="0 0 46.666 36.625" fill="none" xmlns="http://www.w3.org/2000/svg">
<path id="Vector" d="M25.9767 0.975955C26.6018 0.351051 27.4495 0 28.3333 0C29.2172 0 30.0649 0.351051 30.69 0.975955L45.69 15.976C46.3149 16.601 46.666 17.4487 46.666 18.3326C46.666 19.2165 46.3149 20.0642 45.69 20.6893L30.69 35.6893C30.0613 36.2965 29.2193 36.6325 28.3453 36.6249C27.4713 36.6173 26.6353 36.2667 26.0173 35.6487C25.3992 35.0307 25.0487 34.1946 25.0411 33.3206C25.0335 32.4466 25.3695 31.6046 25.9767 30.976L35 21.666H3.33333C2.44928 21.666 1.60143 21.3148 0.976311 20.6896C0.35119 20.0645 0 19.2167 0 18.3326C0 17.4486 0.35119 16.6007 0.976311 15.9756C1.60143 15.3505 2.44928 14.9993 3.33333 14.9993H35L25.9767 5.68929C25.3518 5.0642 25.0007 4.2165 25.0007 3.33262C25.0007 2.44874 25.3518 1.60105 25.9767 0.975955Z" fill="var(--fill-0, black)"/>
</svg>
