<svg preserveAspectRatio="none" width="100%" height="100%" overflow="visible" style="display: block;" viewBox="0 0 35.3334 35.3334" fill="none" xmlns="http://www.w3.org/2000/svg">
<g id="Group">
<path id="Vector" d="M17.6667 34.3333C19.8558 34.336 22.0238 33.9062 24.0463 33.0684C26.0687 32.2307 27.9057 31.0015 29.4517 29.4517C31.0015 27.9057 32.2307 26.0687 33.0684 24.0463C33.9062 22.0238 34.336 19.8558 34.3333 17.6667C34.336 15.4776 33.9062 13.3095 33.0684 11.2871C32.2307 9.26464 31.0015 7.42766 29.4517 5.88168C27.9057 4.33181 26.0687 3.1027 24.0463 2.26494C22.0238 1.42719 19.8558 0.997313 17.6667 1.00001C15.4776 0.997313 13.3095 1.42719 11.2871 2.26494C9.26464 3.1027 7.42766 4.33181 5.88168 5.88168C4.33181 7.42766 3.1027 9.26464 2.26494 11.2871C1.42719 13.3095 0.997313 15.4776 1.00001 17.6667C0.997313 19.8558 1.42719 22.0238 2.26494 24.0463C3.1027 26.0687 4.33181 27.9057 5.88168 29.4517C7.42766 31.0015 9.26464 32.2307 11.2871 33.0684C13.3095 33.9062 15.4776 34.336 17.6667 34.3333Z" fill="var(--fill-0, white)" stroke="var(--stroke-0, white)" stroke-width="2" stroke-linejoin="round"/>
<path id="Vector_2" d="M11 17.6667L16 22.6667L26 12.6667" stroke="var(--stroke-0, black)" stroke-width="2" stroke-linecap="round" stroke-linejoin="round"/>
</g>
</svg>
