<svg preserveAspectRatio="none" width="100%" height="100%" overflow="visible" style="display: block;" viewBox="0 0 41.6667 41.6667" fill="none" xmlns="http://www.w3.org/2000/svg">
<path id="Vector" d="M8.02084 31.4583C9.79167 30.1042 11.7708 29.0368 13.9583 28.2562C16.1458 27.4757 18.4375 27.0847 20.8333 27.0833C23.2292 27.0819 25.5208 27.4729 27.7083 28.2562C29.8958 29.0396 31.875 30.1069 33.6458 31.4583C34.8611 30.0347 35.8076 28.4201 36.4854 26.6146C37.1632 24.809 37.5014 22.8819 37.5 20.8333C37.5 16.2153 35.8771 12.2826 32.6313 9.03542C29.3854 5.78819 25.4528 4.16528 20.8333 4.16667C16.2139 4.16806 12.2813 5.79167 9.03542 9.0375C5.78959 12.2833 4.16667 16.2153 4.16667 20.8333C4.16667 22.8819 4.50556 24.809 5.18334 26.6146C5.86111 28.4201 6.80695 30.0347 8.02084 31.4583ZM15.6521 20.8063C14.2451 19.4021 13.5417 17.675 13.5417 15.625C13.5417 13.575 14.2451 11.8472 15.6521 10.4417C17.059 9.03611 18.7861 8.33333 20.8333 8.33333C22.8806 8.33333 24.6083 9.03681 26.0167 10.4437C27.425 11.8507 28.1278 13.5778 28.125 15.625C28.1222 17.6722 27.4194 19.4 26.0167 20.8083C24.6139 22.2167 22.8861 22.9194 20.8333 22.9167C18.7806 22.9139 17.0528 22.2111 15.65 20.8083M20.8333 41.6667C17.9514 41.6667 15.2431 41.1194 12.7083 40.025C10.1736 38.9306 7.96875 37.4465 6.09375 35.5729C4.21875 33.6993 2.73472 31.4944 1.64167 28.9583C0.548614 26.4222 0.00139153 23.7139 2.63713e-06 20.8333C-0.00138625 17.9528 0.545836 15.2444 1.64167 12.7083C2.7375 10.1722 4.22153 7.96736 6.09375 6.09375C7.96597 4.22014 10.1708 2.73611 12.7083 1.64167C15.2458 0.547222 17.9542 0 20.8333 0C23.7125 0 26.4208 0.547222 28.9583 1.64167C31.4958 2.73611 33.7007 4.22014 35.5729 6.09375C37.4451 7.96736 38.9299 10.1722 40.0271 12.7083C41.1243 15.2444 41.6708 17.9528 41.6667 20.8333C41.6625 23.7139 41.1153 26.4222 40.025 28.9583C38.9347 31.4944 37.4507 33.6993 35.5729 35.5729C33.6951 37.4465 31.4903 38.9312 28.9583 40.0271C26.4264 41.1229 23.7181 41.6694 20.8333 41.6667ZM26.0417 36.6938C27.6736 36.1549 29.1667 35.3819 30.5208 34.375C29.1667 33.3681 27.6736 32.5958 26.0417 32.0583C24.4097 31.5208 22.6736 31.2514 20.8333 31.25C18.9931 31.2486 17.2569 31.5181 15.625 32.0583C13.9931 32.5986 12.5 33.3708 11.1458 34.375C12.5 35.3819 13.9931 36.1549 15.625 36.6938C17.2569 37.2326 18.9931 37.5014 20.8333 37.5C22.6736 37.4986 24.4097 37.2299 26.0417 36.6938ZM23.0729 17.8646C23.6632 17.2743 23.9583 16.5278 23.9583 15.625C23.9583 14.7222 23.6632 13.9757 23.0729 13.3854C22.4826 12.7951 21.7361 12.5 20.8333 12.5C19.9306 12.5 19.184 12.7951 18.5938 13.3854C18.0035 13.9757 17.7083 14.7222 17.7083 15.625C17.7083 16.5278 18.0035 17.2743 18.5938 17.8646C19.184 18.4549 19.9306 18.75 20.8333 18.75C21.7361 18.75 22.4826 18.4549 23.0729 17.8646Z" fill="var(--fill-0, black)"/>
</svg>
