<svg preserveAspectRatio="none" width="100%" height="100%" overflow="visible" style="display: block;" viewBox="0 0 33.3334 37.5" fill="none" xmlns="http://www.w3.org/2000/svg">
<path id="Vector" d="M6.25001 37.5C5.10417 37.5 4.12362 37.0924 3.30834 36.2771C2.49306 35.4618 2.08473 34.4806 2.08334 33.3333V6.25C1.49306 6.25 0.998619 6.05 0.600007 5.65C0.201396 5.25 0.00139607 4.75556 7.1839e-06 4.16667C-0.00138171 3.57778 0.198619 3.08333 0.600007 2.68333C1.0014 2.28333 1.49584 2.08333 2.08334 2.08333H10.4167C10.4167 1.49306 10.6167 0.998611 11.0167 0.6C11.4167 0.201389 11.9111 0.00138889 12.5 0H20.8333C21.4236 0 21.9188 0.2 22.3188 0.6C22.7188 1 22.9181 1.49444 22.9167 2.08333H31.25C31.8403 2.08333 32.3354 2.28333 32.7354 2.68333C33.1354 3.08333 33.3347 3.57778 33.3333 4.16667C33.332 4.75556 33.132 5.25069 32.7333 5.65208C32.3347 6.05347 31.8403 6.25278 31.25 6.25V33.3333C31.25 34.4792 30.8424 35.4604 30.0271 36.2771C29.2118 37.0937 28.2306 37.5014 27.0833 37.5H6.25001ZM27.0833 6.25H6.25001V33.3333H27.0833V6.25ZM12.5 29.1667C13.0903 29.1667 13.5854 28.9667 13.9854 28.5667C14.3854 28.1667 14.5847 27.6722 14.5833 27.0833V12.5C14.5833 11.9097 14.3833 11.4153 13.9833 11.0167C13.5833 10.6181 13.0889 10.4181 12.5 10.4167C11.9111 10.4153 11.4167 10.6153 11.0167 11.0167C10.6167 11.4181 10.4167 11.9125 10.4167 12.5V27.0833C10.4167 27.6736 10.6167 28.1687 11.0167 28.5687C11.4167 28.9687 11.9111 29.1681 12.5 29.1667ZM20.8333 29.1667C21.4236 29.1667 21.9188 28.9667 22.3188 28.5667C22.7188 28.1667 22.9181 27.6722 22.9167 27.0833V12.5C22.9167 11.9097 22.7167 11.4153 22.3167 11.0167C21.9167 10.6181 21.4222 10.4181 20.8333 10.4167C20.2445 10.4153 19.75 10.6153 19.35 11.0167C18.95 11.4181 18.75 11.9125 18.75 12.5V27.0833C18.75 27.6736 18.95 28.1687 19.35 28.5687C19.75 28.9687 20.2445 29.1681 20.8333 29.1667Z" fill="var(--fill-0, black)"/>
</svg>
