<svg preserveAspectRatio="none" width="100%" height="100%" overflow="visible" style="display: block;" viewBox="0 0 37.5 37.5" fill="none" xmlns="http://www.w3.org/2000/svg">
<path id="Vector" d="M4.16667 33.3333H7.13542L27.5 12.9688L24.5312 10L4.16667 30.3646V33.3333ZM0 37.5V28.6458L27.5 1.19792C27.9167 0.815972 28.3771 0.520834 28.8813 0.3125C29.3854 0.104167 29.9146 0 30.4687 0C31.0229 0 31.5611 0.104167 32.0833 0.3125C32.6056 0.520834 33.0569 0.833333 33.4375 1.25L36.3021 4.16667C36.7187 4.54861 37.0229 5 37.2146 5.52083C37.4063 6.04167 37.5014 6.5625 37.5 7.08333C37.5 7.63889 37.4049 8.16875 37.2146 8.67292C37.0243 9.17708 36.7201 9.6368 36.3021 10.0521L8.85417 37.5H0ZM25.9896 11.5104L24.5312 10L27.5 12.9688L25.9896 11.5104Z" fill="var(--fill-0, black)"/>
</svg>
