<svg preserveAspectRatio="none" width="100%" height="100%" overflow="visible" style="display: block;" viewBox="0 0 33.3333 41.6667" fill="none" xmlns="http://www.w3.org/2000/svg">
<path id="Vector" d="M31.25 10.4167H25V8.33333C25 6.1232 24.122 4.00358 22.5592 2.44078C20.9964 0.877974 18.8768 0 16.6667 0C14.4565 0 12.3369 0.877974 10.7741 2.44078C9.21131 4.00358 8.33333 6.1232 8.33333 8.33333V10.4167H2.08333C1.5308 10.4167 1.0009 10.6362 0.610195 11.0269C0.219494 11.4176 0 11.9475 0 12.5V35.4167C0 37.0743 0.65848 38.664 1.83058 39.8361C3.00269 41.0082 4.5924 41.6667 6.25 41.6667H27.0833C28.7409 41.6667 30.3306 41.0082 31.5028 39.8361C32.6749 38.664 33.3333 37.0743 33.3333 35.4167V12.5C33.3333 11.9475 33.1138 11.4176 32.7231 11.0269C32.3324 10.6362 31.8025 10.4167 31.25 10.4167ZM12.5 8.33333C12.5 7.22827 12.939 6.16846 13.7204 5.38706C14.5018 4.60565 15.5616 4.16667 16.6667 4.16667C17.7717 4.16667 18.8315 4.60565 19.6129 5.38706C20.3943 6.16846 20.8333 7.22827 20.8333 8.33333V10.4167H12.5V8.33333ZM29.1667 35.4167C29.1667 35.9692 28.9472 36.4991 28.5565 36.8898C28.1658 37.2805 27.6359 37.5 27.0833 37.5H6.25C5.69747 37.5 5.16756 37.2805 4.77686 36.8898C4.38616 36.4991 4.16667 35.9692 4.16667 35.4167V14.5833H8.33333V16.6667C8.33333 17.2192 8.55283 17.7491 8.94353 18.1398C9.33423 18.5305 9.86413 18.75 10.4167 18.75C10.9692 18.75 11.4991 18.5305 11.8898 18.1398C12.2805 17.7491 12.5 17.2192 12.5 16.6667V14.5833H20.8333V16.6667C20.8333 17.2192 21.0528 17.7491 21.4435 18.1398C21.8342 18.5305 22.3641 18.75 22.9167 18.75C23.4692 18.75 23.9991 18.5305 24.3898 18.1398C24.7805 17.7491 25 17.2192 25 16.6667V14.5833H29.1667V35.4167Z" fill="var(--fill-0, white)"/>
</svg>
