<svg preserveAspectRatio="none" width="100%" height="100%" overflow="visible" style="display: block;" viewBox="0 0 24.9155 14.3549" fill="none" xmlns="http://www.w3.org/2000/svg">
<path id="Vector" d="M0.549033 0.549033C0.900652 0.197489 1.37751 0 1.87472 0C2.37193 0 2.84878 0.197489 3.2004 0.549033L12.4817 9.83028L21.7629 0.549033C22.1183 0.218227 22.5881 0.0381522 23.0735 0.0466973C23.5589 0.0552423 24.0221 0.251742 24.3656 0.59485C24.7091 0.937957 24.9061 1.40092 24.9152 1.88633C24.9242 2.37174 24.7447 2.84176 24.4143 3.19747L13.8088 13.8059C13.4572 14.1574 12.9803 14.3549 12.4831 14.3549C11.9859 14.3549 11.5091 14.1574 11.1574 13.8059L0.549033 3.2004C0.197489 2.84878 0 2.37193 0 1.87472C0 1.3775 0.197489 0.900652 0.549033 0.549033Z" fill="var(--fill-0, black)"/>
</svg>
