<svg preserveAspectRatio="none" width="100%" height="100%" overflow="visible" style="display: block;" viewBox="0 0 24.5 24.5" fill="none" xmlns="http://www.w3.org/2000/svg">
<g id="Group">
<path id="Vector" d="M8.5 16L16 8.5" stroke="var(--stroke-0, black)" stroke-opacity="0.5" stroke-width="2" stroke-linecap="round" stroke-linejoin="round"/>
<path id="Vector_2" d="M8.5 9.125C8.5 9.29076 8.56585 9.44973 8.68306 9.56694C8.80027 9.68415 8.95924 9.75 9.125 9.75C9.29076 9.75 9.44973 9.68415 9.56694 9.56694C9.68415 9.44973 9.75 9.29076 9.75 9.125C9.75 8.95924 9.68415 8.80027 9.56694 8.68306C9.44973 8.56585 9.29076 8.5 9.125 8.5C8.95924 8.5 8.80027 8.56585 8.68306 8.68306C8.56585 8.80027 8.5 8.95924 8.5 9.125ZM14.75 15.375C14.75 15.5408 14.8158 15.6997 14.9331 15.8169C15.0503 15.9342 15.2092 16 15.375 16C15.5408 16 15.6997 15.9342 15.8169 15.8169C15.9342 15.6997 16 15.5408 16 15.375C16 15.2092 15.9342 15.0503 15.8169 14.9331C15.6997 14.8158 15.5408 14.75 15.375 14.75C15.2092 14.75 15.0503 14.8158 14.9331 14.9331C14.8158 15.0503 14.75 15.2092 14.75 15.375Z" fill="var(--fill-0, black)" fill-opacity="0.5" stroke="var(--stroke-0, black)" stroke-opacity="0.5" stroke-width="2" stroke-linecap="round" stroke-linejoin="round"/>
<path id="Vector_3" d="M1 12.25C1 13.7274 1.29099 15.1903 1.85636 16.5552C2.42172 17.9201 3.25039 19.1603 4.29505 20.205C5.33971 21.2496 6.5799 22.0783 7.94481 22.6436C9.30972 23.209 10.7726 23.5 12.25 23.5C13.7274 23.5 15.1903 23.209 16.5552 22.6436C17.9201 22.0783 19.1603 21.2496 20.205 20.205C21.2496 19.1603 22.0783 17.9201 22.6436 16.5552C23.209 15.1903 23.5 13.7274 23.5 12.25C23.5 10.7726 23.209 9.30972 22.6436 7.94481C22.0783 6.5799 21.2496 5.33971 20.205 4.29505C19.1603 3.25039 17.9201 2.42172 16.5552 1.85636C15.1903 1.29099 13.7274 1 12.25 1C10.7726 1 9.30972 1.29099 7.94481 1.85636C6.5799 2.42172 5.33971 3.25039 4.29505 4.29505C3.25039 5.33971 2.42172 6.5799 1.85636 7.94481C1.29099 9.30972 1 10.7726 1 12.25Z" stroke="var(--stroke-0, black)" stroke-opacity="0.5" stroke-width="2" stroke-linecap="round" stroke-linejoin="round"/>
</g>
</svg>
