<svg preserveAspectRatio="none" width="100%" height="100%" overflow="visible" style="display: block;" viewBox="0 0 23.3333 23.3333" fill="none" xmlns="http://www.w3.org/2000/svg">
<path id="Vector" d="M7.54688 9.95312C6.40451 8.81076 5.83333 7.4375 5.83333 5.83333C5.83333 4.22917 6.40451 2.8559 7.54688 1.71354C8.68924 0.571181 10.0625 0 11.6667 0C13.2708 0 14.6441 0.571181 15.7865 1.71354C16.9288 2.8559 17.5 4.22917 17.5 5.83333C17.5 7.4375 16.9288 8.81076 15.7865 9.95312C14.6441 11.0955 13.2708 11.6667 11.6667 11.6667C10.0625 11.6667 8.68924 11.0955 7.54688 9.95312ZM0 20.4167V19.25C0 18.4236 0.212917 17.6643 0.63875 16.9721C1.06458 16.2799 1.62944 15.751 2.33333 15.3854C3.84028 14.6319 5.37153 14.0671 6.92708 13.6908C8.48264 13.3146 10.0625 13.126 11.6667 13.125C13.2708 13.124 14.8507 13.3126 16.4063 13.6908C17.9618 14.069 19.4931 14.6339 21 15.3854C21.7049 15.75 22.2702 16.2789 22.696 16.9721C23.1219 17.6653 23.3343 18.4246 23.3333 19.25V20.4167C23.3333 21.2188 23.048 21.9056 22.4773 22.4773C21.9066 23.049 21.2197 23.3343 20.4167 23.3333H2.91667C2.11458 23.3333 1.42819 23.048 0.8575 22.4773C0.286805 21.9066 0.000972222 21.2197 0 20.4167ZM2.91667 20.4167H20.4167V19.25C20.4167 18.9826 20.3501 18.7396 20.2169 18.5208C20.0837 18.3021 19.9072 18.1319 19.6875 18.0104C18.375 17.3542 17.0503 16.8622 15.7135 16.5346C14.3767 16.2069 13.0278 16.0426 11.6667 16.0417C10.3056 16.0407 8.9566 16.205 7.61979 16.5346C6.28299 16.8642 4.95833 17.3561 3.64583 18.0104C3.42708 18.1319 3.25063 18.3021 3.11646 18.5208C2.98229 18.7396 2.91569 18.9826 2.91667 19.25V20.4167ZM13.7273 7.89396C14.298 7.32229 14.5833 6.63542 14.5833 5.83333C14.5833 5.03125 14.298 4.34486 13.7273 3.77417C13.1566 3.20347 12.4697 2.91764 11.6667 2.91667C10.8636 2.91569 10.1772 3.20153 9.6075 3.77417C9.03778 4.34681 8.75194 5.03319 8.75 5.83333C8.74806 6.63347 9.03389 7.32035 9.6075 7.89396C10.1811 8.46757 10.8675 8.75292 11.6667 8.75C12.4658 8.74708 13.1527 8.46174 13.7273 7.89396Z" fill="var(--fill-0, black)"/>
</svg>
